<?xml version="1.0" encoding="utf-8"?>
<!-- Generator: Adobe Illustrator 24.1.2, SVG Export Plug-In . SVG Version: 6.00 Build 0)  -->
<svg version="1.1" id="Layer_1" xmlns="http://www.w3.org/2000/svg" xmlns:xlink="http://www.w3.org/1999/xlink" x="0px" y="0px"
	 viewBox="0 0 800 800" style="enable-background:new 0 0 800 800;" xml:space="preserve">
<style type="text/css">
	.st0{clip-path:url(#SVGID_2_);fill:#FFFFFF;}
	.st1{clip-path:url(#SVGID_2_);fill:none;stroke:#FFC8C8;stroke-width:0.15;stroke-linecap:round;stroke-miterlimit:10;}
	.st2{clip-path:url(#SVGID_2_);}
</style>
<g>
	<defs>
		<rect id="SVGID_1_" width="800" height="800"/>
	</defs>
	<clipPath id="SVGID_2_">
		<use xlink:href="#SVGID_1_"  style="overflow:visible;"/>
	</clipPath>
	<rect class="st0" width="800" height="800"/>
	<circle class="st0" cx="360" cy="270" r="7.5"/>
	<circle class="st1" cx="360" cy="270" r="7.5"/>
	<circle class="st2" cx="380" cy="270" r="7.5"/>
	<circle class="st1" cx="380" cy="270" r="7.5"/>
	<circle class="st2" cx="400" cy="270" r="7.5"/>
	<circle class="st1" cx="400" cy="270" r="7.5"/>
	<circle class="st0" cx="420" cy="270" r="7.5"/>
	<circle class="st1" cx="420" cy="270" r="7.5"/>
	<circle class="st0" cx="440" cy="270" r="7.5"/>
	<circle class="st1" cx="440" cy="270" r="7.5"/>
	<circle class="st0" cx="360" cy="290" r="7.5"/>
	<circle class="st1" cx="360" cy="290" r="7.5"/>
	<circle class="st0" cx="380" cy="290" r="7.5"/>
	<circle class="st1" cx="380" cy="290" r="7.5"/>
	<circle class="st0" cx="400" cy="290" r="7.5"/>
	<circle class="st1" cx="400" cy="290" r="7.5"/>
	<circle class="st0" cx="420" cy="290" r="7.5"/>
	<circle class="st1" cx="420" cy="290" r="7.5"/>
	<circle class="st2" cx="440" cy="290" r="7.5"/>
	<circle class="st1" cx="440" cy="290" r="7.5"/>
	<circle class="st2" cx="360" cy="310" r="7.5"/>
	<circle class="st1" cx="360" cy="310" r="7.5"/>
	<circle class="st0" cx="380" cy="310" r="7.5"/>
	<circle class="st1" cx="380" cy="310" r="7.5"/>
	<circle class="st2" cx="400" cy="310" r="7.5"/>
	<circle class="st1" cx="400" cy="310" r="7.5"/>
	<circle class="st0" cx="420" cy="310" r="7.5"/>
	<circle class="st1" cx="420" cy="310" r="7.5"/>
	<circle class="st2" cx="440" cy="310" r="7.5"/>
	<circle class="st1" cx="440" cy="310" r="7.5"/>
	<circle class="st2" cx="360" cy="330" r="7.5"/>
	<circle class="st1" cx="360" cy="330" r="7.5"/>
	<circle class="st0" cx="380" cy="330" r="7.5"/>
	<circle class="st1" cx="380" cy="330" r="7.5"/>
	<circle class="st0" cx="400" cy="330" r="7.5"/>
	<circle class="st1" cx="400" cy="330" r="7.5"/>
	<circle class="st2" cx="420" cy="330" r="7.5"/>
	<circle class="st1" cx="420" cy="330" r="7.5"/>
	<circle class="st0" cx="440" cy="330" r="7.5"/>
	<circle class="st1" cx="440" cy="330" r="7.5"/>
	<circle class="st0" cx="360" cy="350" r="7.5"/>
	<circle class="st1" cx="360" cy="350" r="7.5"/>
	<circle class="st0" cx="380" cy="350" r="7.5"/>
	<circle class="st1" cx="380" cy="350" r="7.5"/>
	<circle class="st2" cx="400" cy="350" r="7.5"/>
	<circle class="st1" cx="400" cy="350" r="7.5"/>
	<circle class="st0" cx="420" cy="350" r="7.5"/>
	<circle class="st1" cx="420" cy="350" r="7.5"/>
	<circle class="st2" cx="440" cy="350" r="7.5"/>
	<circle class="st1" cx="440" cy="350" r="7.5"/>
	<circle class="st0" cx="360" cy="370" r="7.5"/>
	<circle class="st1" cx="360" cy="370" r="7.5"/>
	<circle class="st2" cx="380" cy="370" r="7.5"/>
	<circle class="st1" cx="380" cy="370" r="7.5"/>
	<circle class="st2" cx="400" cy="370" r="7.5"/>
	<circle class="st1" cx="400" cy="370" r="7.5"/>
	<circle class="st2" cx="420" cy="370" r="7.5"/>
	<circle class="st1" cx="420" cy="370" r="7.5"/>
	<circle class="st0" cx="440" cy="370" r="7.5"/>
	<circle class="st1" cx="440" cy="370" r="7.5"/>
	<circle class="st2" cx="360" cy="390" r="7.5"/>
	<circle class="st1" cx="360" cy="390" r="7.5"/>
	<circle class="st0" cx="380" cy="390" r="7.5"/>
	<circle class="st1" cx="380" cy="390" r="7.5"/>
	<circle class="st2" cx="400" cy="390" r="7.5"/>
	<circle class="st1" cx="400" cy="390" r="7.5"/>
	<circle class="st0" cx="420" cy="390" r="7.5"/>
	<circle class="st1" cx="420" cy="390" r="7.5"/>
	<circle class="st0" cx="440" cy="390" r="7.5"/>
	<circle class="st1" cx="440" cy="390" r="7.5"/>
	<circle class="st0" cx="360" cy="410" r="7.5"/>
	<circle class="st1" cx="360" cy="410" r="7.5"/>
	<circle class="st2" cx="380" cy="410" r="7.5"/>
	<circle class="st1" cx="380" cy="410" r="7.5"/>
	<circle class="st0" cx="400" cy="410" r="7.5"/>
	<circle class="st1" cx="400" cy="410" r="7.5"/>
	<circle class="st0" cx="420" cy="410" r="7.5"/>
	<circle class="st1" cx="420" cy="410" r="7.5"/>
	<circle class="st2" cx="440" cy="410" r="7.5"/>
	<circle class="st1" cx="440" cy="410" r="7.5"/>
	<circle class="st2" cx="360" cy="430" r="7.5"/>
	<circle class="st1" cx="360" cy="430" r="7.5"/>
	<circle class="st0" cx="380" cy="430" r="7.5"/>
	<circle class="st1" cx="380" cy="430" r="7.5"/>
	<circle class="st2" cx="400" cy="430" r="7.5"/>
	<circle class="st1" cx="400" cy="430" r="7.5"/>
	<circle class="st0" cx="420" cy="430" r="7.5"/>
	<circle class="st1" cx="420" cy="430" r="7.5"/>
	<circle class="st2" cx="440" cy="430" r="7.5"/>
	<circle class="st1" cx="440" cy="430" r="7.5"/>
	<circle class="st2" cx="360" cy="450" r="7.5"/>
	<circle class="st1" cx="360" cy="450" r="7.5"/>
	<circle class="st0" cx="380" cy="450" r="7.5"/>
	<circle class="st1" cx="380" cy="450" r="7.5"/>
	<circle class="st0" cx="400" cy="450" r="7.5"/>
	<circle class="st1" cx="400" cy="450" r="7.5"/>
	<circle class="st2" cx="420" cy="450" r="7.5"/>
	<circle class="st1" cx="420" cy="450" r="7.5"/>
	<circle class="st2" cx="440" cy="450" r="7.5"/>
	<circle class="st1" cx="440" cy="450" r="7.5"/>
	<circle class="st0" cx="360" cy="470" r="7.5"/>
	<circle class="st1" cx="360" cy="470" r="7.5"/>
	<circle class="st0" cx="380" cy="470" r="7.5"/>
	<circle class="st1" cx="380" cy="470" r="7.5"/>
	<circle class="st0" cx="400" cy="470" r="7.5"/>
	<circle class="st1" cx="400" cy="470" r="7.5"/>
	<circle class="st0" cx="420" cy="470" r="7.5"/>
	<circle class="st1" cx="420" cy="470" r="7.5"/>
	<circle class="st0" cx="440" cy="470" r="7.5"/>
	<circle class="st1" cx="440" cy="470" r="7.5"/>
	<circle class="st0" cx="360" cy="490" r="7.5"/>
	<circle class="st1" cx="360" cy="490" r="7.5"/>
	<circle class="st2" cx="380" cy="490" r="7.5"/>
	<circle class="st1" cx="380" cy="490" r="7.5"/>
	<circle class="st2" cx="400" cy="490" r="7.5"/>
	<circle class="st1" cx="400" cy="490" r="7.5"/>
	<circle class="st0" cx="420" cy="490" r="7.5"/>
	<circle class="st1" cx="420" cy="490" r="7.5"/>
	<circle class="st0" cx="440" cy="490" r="7.5"/>
	<circle class="st1" cx="440" cy="490" r="7.5"/>
	<circle class="st0" cx="360" cy="510" r="7.5"/>
	<circle class="st1" cx="360" cy="510" r="7.5"/>
	<circle class="st0" cx="380" cy="510" r="7.5"/>
	<circle class="st1" cx="380" cy="510" r="7.5"/>
	<circle class="st0" cx="400" cy="510" r="7.5"/>
	<circle class="st1" cx="400" cy="510" r="7.5"/>
	<circle class="st0" cx="420" cy="510" r="7.5"/>
	<circle class="st1" cx="420" cy="510" r="7.5"/>
	<circle class="st2" cx="440" cy="510" r="7.5"/>
	<circle class="st1" cx="440" cy="510" r="7.5"/>
	<circle class="st0" cx="360" cy="530" r="7.5"/>
	<circle class="st1" cx="360" cy="530" r="7.5"/>
	<circle class="st0" cx="380" cy="530" r="7.5"/>
	<circle class="st1" cx="380" cy="530" r="7.5"/>
	<circle class="st0" cx="400" cy="530" r="7.5"/>
	<circle class="st1" cx="400" cy="530" r="7.5"/>
	<circle class="st2" cx="420" cy="530" r="7.5"/>
	<circle class="st1" cx="420" cy="530" r="7.5"/>
	<circle class="st0" cx="440" cy="530" r="7.5"/>
	<circle class="st1" cx="440" cy="530" r="7.5"/>
</g>
</svg>
